<mxfile host="app.diagrams.net" agent="Mozilla/5.0 (X11; Ubuntu; Linux x86_64; rv:136.0) Gecko/20100101 Firefox/136.0" version="26.1.1">
  <diagram id="SX80pwcMp4Qsgx0g574u" name="Page-1">
    <mxGraphModel dx="1434" dy="822" grid="1" gridSize="10" guides="1" tooltips="1" connect="1" arrows="1" fold="1" page="1" pageScale="1" pageWidth="827" pageHeight="1169" background="#ffffff" math="0" shadow="0">
      <root>
        <mxCell id="0" />
        <mxCell id="1" parent="0" />
        <mxCell id="aWty4ZejZuyvXBJQkdjt-1" value="" style="group" parent="1" vertex="1" connectable="0">
          <mxGeometry x="320" y="79.24" width="100.25" height="210.76" as="geometry" />
        </mxCell>
        <mxCell id="aWty4ZejZuyvXBJQkdjt-25" value="&amp;nbsp;" style="rounded=1;whiteSpace=wrap;html=1;strokeColor=none;strokeWidth=2;arcSize=5;perimeterSpacing=0;fillColor=#EAE8EE;fontColor=#948DA8;" parent="aWty4ZejZuyvXBJQkdjt-1" vertex="1">
          <mxGeometry x="-9.75" y="-9.24" width="99.75" height="219.24" as="geometry" />
        </mxCell>
        <mxCell id="aWty4ZejZuyvXBJQkdjt-2" value="&lt;font color=&quot;#948da8&quot;&gt;&lt;br&gt;Certification&lt;br&gt;Authority&lt;/font&gt;" style="ellipse;whiteSpace=wrap;html=1;aspect=fixed;gradientDirection=north;fillColor=none;strokeWidth=2;strokeColor=#948DA8;" parent="aWty4ZejZuyvXBJQkdjt-1" vertex="1">
          <mxGeometry width="80" height="80" as="geometry" />
        </mxCell>
        <mxCell id="aWty4ZejZuyvXBJQkdjt-3" value="" style="shape=image;verticalLabelPosition=bottom;labelBackgroundColor=#ffffff;verticalAlign=top;aspect=fixed;imageAspect=0;image=data:image/svg+xml,PHN2ZyB4bWxucz0iaHR0cDovL3d3dy53My5vcmcvMjAwMC9zdmciIHhtbG5zOnhsaW5rPSJodHRwOi8vd3d3LnczLm9yZy8xOTk5L3hsaW5rIiB3aWR0aD0iMjJweCIgaGVpZ2h0PSIyMXB4IiB2aWV3Qm94PSIwIDAgMjIgMjEiIHZlcnNpb249IjEuMSI+JiN4YTsgICAgPCEtLSBHZW5lcmF0b3I6IFNrZXRjaCA1OCAoODQ2NjMpIC0gaHR0cHM6Ly9za2V0Y2guY29tIC0tPiYjeGE7ICAgIDx0aXRsZT5TaGFwZTwvdGl0bGU+JiN4YTsgICAgPGRlc2M+Q3JlYXRlZCB3aXRoIFNrZXRjaC48L2Rlc2M+JiN4YTsgICAgPGcgaWQ9IlN0eWxlZ3VpZGUtJmFtcDstVHlwZXBhZ2VzIiBzdHJva2U9Im5vbmUiIHN0cm9rZS13aWR0aD0iMSIgZmlsbD0ibm9uZSIgZmlsbC1ydWxlPSJldmVub2RkIj4mI3hhOyAgICAgICAgPGcgaWQ9Ikljb25zIiB0cmFuc2Zvcm09InRyYW5zbGF0ZSgtNTcxLjAwMDAwMCwgLTgwMy4wMDAwMDApIiBmaWxsPSIjNjYzQ0RDIj4mI3hhOyAgICAgICAgICAgIDxwYXRoIGQ9Ik01ODIsODAzIEw1ODAuMDIxNDg0LDgwNC45MTIxMDkgTDU3Ny4yOTg4MjgsODA0LjUyNzM0NCBMNTc2LjgyMjI2Niw4MDcuMjM4MjgxIEw1NzQuMzkyNTc4LDgwOC41MjczNDQgTDU3NS41OTk2MDksODExIEw1NzQuMzkyNTc4LDgxMy40NzI2NTYgTDU3Ni44MjIyNjYsODE0Ljc2MTcxOSBMNTc3LjI5ODgyOCw4MTcuNDcyNjU2IEw1ODAuMDIzNDM4LDgxNy4wODc4OTEgTDU4Miw4MTkgTDU4My45Nzg1MTYsODE3LjA4Nzg5MSBMNTg2LjcwMzEyNSw4MTcuNDcyNjU2IEw1ODcuMTc3NzM0LDgxNC43NjE3MTkgTDU4OS42MDkzNzUsODEzLjQ3MjY1NiBMNTg4LjQwMDM5MSw4MTEgTDU4OS42MDc0MjIsODA4LjUyNzM0NCBMNTg3LjE3NzczNCw4MDcuMjM4MjgxIEw1ODYuNzAxMTcyLDgwNC41MjczNDQgTDU4My45NzY1NjIsODA0LjkxMjEwOSBMNTgyLDgwMyBaIE01NzQuOTgyNDIyLDgxNi4wMTc1NzggTDU3MSw4MjAgTDU3NCw4MjEgTDU3NSw4MjQgTDU3OS41ODk4NDQsODE5LjQxMDE1NiBMNTc5LjM0Mzc1LDgxOS4xNzU3ODEgTDU3OC4xMTcxODgsODE5LjM0NzY1NiBDNTc3Ljk5NzE4Nyw4MTkuMzY0NjU2IDU3Ny44Nzk3MTksODE5LjM3MzA0NyA1NzcuNzYxNzE5LDgxOS4zNzMwNDcgQzU3Ni41MjU3MTksODE5LjM3MzA0NyA1NzUuNDcyNzY2LDgxOC40ODg0ODQgNTc1LjI1OTc2Niw4MTcuMjcxNDg0IEw1NzUuMDQ2ODc1LDgxNi4wNTI3MzQgTDU3NC45ODI0MjIsODE2LjAxNzU3OCBaIE01ODkuMDE3NTc4LDgxNi4wMTc1NzggTDU4OC45NTMxMjUsODE2LjA1MjczNCBMNTg4Ljc0MDIzNCw4MTcuMjcxNDg0IEM1ODguNTI2MjM0LDgxOC40ODk0ODQgNTg3LjQ3NDI4MSw4MTkuMzczMDQ3IDU4Ni4yMzgyODEsODE5LjM3MzA0NyBDNTg2LjEyMDI4MSw4MTkuMzczMDQ3IDU4Ni4wMDI4MTMsODE5LjM2NDY1NiA1ODUuODgyODEyLDgxOS4zNDc2NTYgTDU4NC42NTYyNSw4MTkuMTc1NzgxIEw1ODQuNDEwMTU2LDgxOS40MTIxMDkgTDU4OSw4MjQgTDU5MCw4MjEgTDU5Myw4MjAgTDU4OS4wMTc1NzgsODE2LjAxNzU3OCBaIiBpZD0iU2hhcGUiLz4mI3hhOyAgICAgICAgPC9nPiYjeGE7ICAgIDwvZz4mI3hhOzwvc3ZnPg==;" parent="aWty4ZejZuyvXBJQkdjt-1" vertex="1">
          <mxGeometry x="29" y="10.730000000000018" width="22" height="21" as="geometry" />
        </mxCell>
        <mxCell id="aWty4ZejZuyvXBJQkdjt-8" value="" style="shape=image;verticalLabelPosition=bottom;labelBackgroundColor=#ffffff;verticalAlign=top;aspect=fixed;imageAspect=0;image=data:image/svg+xml,PHN2ZyB4bWxucz0iaHR0cDovL3d3dy53My5vcmcvMjAwMC9zdmciIHhtbG5zOnhsaW5rPSJodHRwOi8vd3d3LnczLm9yZy8xOTk5L3hsaW5rIiB3aWR0aD0iMjJweCIgaGVpZ2h0PSIyMXB4IiB2aWV3Qm94PSIwIDAgMjIgMjEiIHZlcnNpb249IjEuMSI+JiN4YTsgICAgPCEtLSBHZW5lcmF0b3I6IFNrZXRjaCA1OCAoODQ2NjMpIC0gaHR0cHM6Ly9za2V0Y2guY29tIC0tPiYjeGE7ICAgIDx0aXRsZT5TaGFwZSBDb3B5IDQ8L3RpdGxlPiYjeGE7ICAgIDxkZXNjPkNyZWF0ZWQgd2l0aCBTa2V0Y2guPC9kZXNjPiYjeGE7ICAgIDxnIGlkPSJTdHlsZWd1aWRlLSZhbXA7LVR5cGVwYWdlcyIgc3Ryb2tlPSJub25lIiBzdHJva2Utd2lkdGg9IjEiIGZpbGw9Im5vbmUiIGZpbGwtcnVsZT0iZXZlbm9kZCI+JiN4YTsgICAgICAgIDxnIGlkPSJJY29ucyIgdHJhbnNmb3JtPSJ0cmFuc2xhdGUoLTYxNy4wMDAwMDAsIC04MDMuMDAwMDAwKSIgZmlsbD0iIzk0OERBOCI+JiN4YTsgICAgICAgICAgICA8cGF0aCBkPSJNNjI4LDgwMyBMNjI2LjAyMTQ4NCw4MDQuOTEyMTA5IEw2MjMuMjk4ODI4LDgwNC41MjczNDQgTDYyMi44MjIyNjYsODA3LjIzODI4MSBMNjIwLjM5MjU3OCw4MDguNTI3MzQ0IEw2MjEuNTk5NjA5LDgxMSBMNjIwLjM5MjU3OCw4MTMuNDcyNjU2IEw2MjIuODIyMjY2LDgxNC43NjE3MTkgTDYyMy4yOTg4MjgsODE3LjQ3MjY1NiBMNjI2LjAyMzQzOCw4MTcuMDg3ODkxIEw2MjgsODE5IEw2MjkuOTc4NTE2LDgxNy4wODc4OTEgTDYzMi43MDMxMjUsODE3LjQ3MjY1NiBMNjMzLjE3NzczNCw4MTQuNzYxNzE5IEw2MzUuNjA5Mzc1LDgxMy40NzI2NTYgTDYzNC40MDAzOTEsODExIEw2MzUuNjA3NDIyLDgwOC41MjczNDQgTDYzMy4xNzc3MzQsODA3LjIzODI4MSBMNjMyLjcwMTE3Miw4MDQuNTI3MzQ0IEw2MjkuOTc2NTYyLDgwNC45MTIxMDkgTDYyOCw4MDMgWiBNNjIwLjk4MjQyMiw4MTYuMDE3NTc4IEw2MTcsODIwIEw2MjAsODIxIEw2MjEsODI0IEw2MjUuNTg5ODQ0LDgxOS40MTAxNTYgTDYyNS4zNDM3NSw4MTkuMTc1NzgxIEw2MjQuMTE3MTg4LDgxOS4zNDc2NTYgQzYyMy45OTcxODcsODE5LjM2NDY1NiA2MjMuODc5NzE5LDgxOS4zNzMwNDcgNjIzLjc2MTcxOSw4MTkuMzczMDQ3IEM2MjIuNTI1NzE5LDgxOS4zNzMwNDcgNjIxLjQ3Mjc2Niw4MTguNDg4NDg0IDYyMS4yNTk3NjYsODE3LjI3MTQ4NCBMNjIxLjA0Njg3NSw4MTYuMDUyNzM0IEw2MjAuOTgyNDIyLDgxNi4wMTc1NzggWiBNNjM1LjAxNzU3OCw4MTYuMDE3NTc4IEw2MzQuOTUzMTI1LDgxNi4wNTI3MzQgTDYzNC43NDAyMzQsODE3LjI3MTQ4NCBDNjM0LjUyNjIzNCw4MTguNDg5NDg0IDYzMy40NzQyODEsODE5LjM3MzA0NyA2MzIuMjM4MjgxLDgxOS4zNzMwNDcgQzYzMi4xMjAyODEsODE5LjM3MzA0NyA2MzIuMDAyODEzLDgxOS4zNjQ2NTYgNjMxLjg4MjgxMiw4MTkuMzQ3NjU2IEw2MzAuNjU2MjUsODE5LjE3NTc4MSBMNjMwLjQxMDE1Niw4MTkuNDEyMTA5IEw2MzUsODI0IEw2MzYsODIxIEw2MzksODIwIEw2MzUuMDE3NTc4LDgxNi4wMTc1NzggWiIgaWQ9IlNoYXBlLUNvcHktNCIvPiYjeGE7ICAgICAgICA8L2c+JiN4YTsgICAgPC9nPiYjeGE7PC9zdmc+;strokeColor=#948DA8;fillColor=#948DA8;fontColor=#948DA8;" parent="aWty4ZejZuyvXBJQkdjt-1" vertex="1">
          <mxGeometry x="29" y="10.730000000000018" width="22" height="21" as="geometry" />
        </mxCell>
        <mxCell id="aWty4ZejZuyvXBJQkdjt-16" value="&amp;nbsp;" style="rounded=1;whiteSpace=wrap;html=1;fillColor=#EFEBFB;strokeColor=none;strokeWidth=2;arcSize=5;perimeterSpacing=0;fontColor=#948DA8;" parent="1" vertex="1">
          <mxGeometry x="470" y="350" width="220" height="100" as="geometry" />
        </mxCell>
        <mxCell id="aWty4ZejZuyvXBJQkdjt-15" value="&amp;nbsp;" style="rounded=1;whiteSpace=wrap;html=1;fillColor=#EFEBFB;strokeColor=none;strokeWidth=2;arcSize=5;perimeterSpacing=0;fontColor=#948DA8;" parent="1" vertex="1">
          <mxGeometry x="470" y="70" width="220" height="220" as="geometry" />
        </mxCell>
        <mxCell id="M8iGMSHeOonGl1CGFlT7-1" value="" style="group" parent="1" vertex="1" connectable="0">
          <mxGeometry x="480" y="80" width="80" height="79.24374999999998" as="geometry" />
        </mxCell>
        <mxCell id="M8iGMSHeOonGl1CGFlT7-2" value="&lt;font color=&quot;#663cdc&quot;&gt;&amp;nbsp; &amp;nbsp; &amp;nbsp; &amp;nbsp; &amp;nbsp; &amp;nbsp; Configuration&lt;br&gt;Proxy&lt;br&gt;&lt;/font&gt;" style="rounded=1;whiteSpace=wrap;html=1;strokeWidth=2;fillColor=none;strokeColor=#663CDC;" parent="M8iGMSHeOonGl1CGFlT7-1" vertex="1">
          <mxGeometry width="80" height="79.24375" as="geometry" />
        </mxCell>
        <mxCell id="M8iGMSHeOonGl1CGFlT7-3" value="" style="shape=image;verticalLabelPosition=bottom;labelBackgroundColor=#ffffff;verticalAlign=top;aspect=fixed;imageAspect=0;image=data:image/svg+xml,PHN2ZyB4bWxucz0iaHR0cDovL3d3dy53My5vcmcvMjAwMC9zdmciIHhtbG5zOnhsaW5rPSJodHRwOi8vd3d3LnczLm9yZy8xOTk5L3hsaW5rIiB3aWR0aD0iMThweCIgaGVpZ2h0PSIxMnB4IiB2aWV3Qm94PSIwIDAgMTggMTIiIHZlcnNpb249IjEuMSI+JiN4YTsgICAgPCEtLSBHZW5lcmF0b3I6IFNrZXRjaCA1OCAoODQ2NjMpIC0gaHR0cHM6Ly9za2V0Y2guY29tIC0tPiYjeGE7ICAgIDx0aXRsZT5TaGFwZTwvdGl0bGU+JiN4YTsgICAgPGRlc2M+Q3JlYXRlZCB3aXRoIFNrZXRjaC48L2Rlc2M+JiN4YTsgICAgPGcgaWQ9IlN0eWxlZ3VpZGUtJmFtcDstVHlwZXBhZ2VzIiBzdHJva2U9Im5vbmUiIHN0cm9rZS13aWR0aD0iMSIgZmlsbD0ibm9uZSIgZmlsbC1ydWxlPSJldmVub2RkIj4mI3hhOyAgICAgICAgPGcgaWQ9Ikljb25zIiB0cmFuc2Zvcm09InRyYW5zbGF0ZSgtNzY3LjAwMDAwMCwgLTY1OC4wMDAwMDApIiBmaWxsPSIjNjYzQ0RDIiBmaWxsLXJ1bGU9Im5vbnplcm8iPiYjeGE7ICAgICAgICAgICAgPHBhdGggZD0iTTc2OCw2NjggTDc4NCw2NjggQzc4NC41NTIyODUsNjY4IDc4NSw2NjguNDQ3NzE1IDc4NSw2NjkgQzc4NSw2NjkuNTUyMjg1IDc4NC41NTIyODUsNjcwIDc4NCw2NzAgTDc2OCw2NzAgQzc2Ny40NDc3MTUsNjcwIDc2Nyw2NjkuNTUyMjg1IDc2Nyw2NjkgQzc2Nyw2NjguNDQ3NzE1IDc2Ny40NDc3MTUsNjY4IDc2OCw2NjggWiBNNzg0LDY1OCBMNzY4LDY1OCBDNzY3LjQ1LDY1OCA3NjcsNjU4LjQ1IDc2Nyw2NTkgTDc2Nyw2NjUgQzc2Nyw2NjUuNTUgNzY3LjQ1LDY2NiA3NjgsNjY2IEw3ODQsNjY2IEM3ODQuNTUsNjY2IDc4NSw2NjUuNTUgNzg1LDY2NSBMNzg1LDY1OSBDNzg1LDY1OC40NSA3ODQuNTUsNjU4IDc4NCw2NTggWiBNNzcxLDY2NCBDNzY5LjksNjY0IDc2OSw2NjMuMSA3NjksNjYyIEM3NjksNjYwLjkgNzY5LjksNjYwIDc3MSw2NjAgQzc3Mi4xLDY2MCA3NzMsNjYwLjkgNzczLDY2MiBDNzczLDY2My4xIDc3Mi4xLDY2NCA3NzEsNjY0IFoiIGlkPSJTaGFwZSIvPiYjeGE7ICAgICAgICA8L2c+JiN4YTsgICAgPC9nPiYjeGE7PC9zdmc+;" parent="M8iGMSHeOonGl1CGFlT7-1" vertex="1">
          <mxGeometry x="31" y="14.730000000000018" width="18" height="12" as="geometry" />
        </mxCell>
        <mxCell id="M8iGMSHeOonGl1CGFlT7-4" value="" style="group" parent="1" vertex="1" connectable="0">
          <mxGeometry x="480" y="200" width="80" height="79.24374999999998" as="geometry" />
        </mxCell>
        <mxCell id="M8iGMSHeOonGl1CGFlT7-5" value="&lt;font color=&quot;#663cdc&quot;&gt;&amp;nbsp; &amp;nbsp; &amp;nbsp; &amp;nbsp; &amp;nbsp; &amp;nbsp; Central&lt;br&gt;Server&lt;/font&gt;" style="rounded=1;whiteSpace=wrap;html=1;strokeWidth=2;fillColor=none;strokeColor=#663CDC;" parent="M8iGMSHeOonGl1CGFlT7-4" vertex="1">
          <mxGeometry width="80" height="79.24375" as="geometry" />
        </mxCell>
        <mxCell id="M8iGMSHeOonGl1CGFlT7-6" value="" style="shape=image;verticalLabelPosition=bottom;labelBackgroundColor=#ffffff;verticalAlign=top;aspect=fixed;imageAspect=0;image=data:image/svg+xml,PHN2ZyB4bWxucz0iaHR0cDovL3d3dy53My5vcmcvMjAwMC9zdmciIHdpZHRoPSIxOCIgaGVpZ2h0PSIxOCIgdmlld0JveD0iMCAwIDE4IDE4IiBmaWxsPSJub25lIj4mI3hhOzxwYXRoIGQ9Ik0xNyAxMEgxQzAuNDUgMTAgMCAxMC40NSAwIDExVjE3QzAgMTcuNTUgMC40NSAxOCAxIDE4SDE3QzE3LjU1IDE4IDE4IDE3LjU1IDE4IDE3VjExQzE4IDEwLjQ1IDE3LjU1IDEwIDE3IDEwWk00IDE2QzIuOSAxNiAyIDE1LjEgMiAxNEMyIDEyLjkgMi45IDEyIDQgMTJDNS4xIDEyIDYgMTIuOSA2IDE0QzYgMTUuMSA1LjEgMTYgNCAxNlpNMTcgMEgxQzAuNDUgMCAwIDAuNDUgMCAxVjdDMCA3LjU1IDAuNDUgOCAxIDhIMTdDMTcuNTUgOCAxOCA3LjU1IDE4IDdWMUMxOCAwLjQ1IDE3LjU1IDAgMTcgMFpNNCA2QzIuOSA2IDIgNS4xIDIgNEMyIDIuOSAyLjkgMiA0IDJDNS4xIDIgNiAyLjkgNiA0QzYgNS4xIDUuMSA2IDQgNloiIGZpbGw9IiM2NjNDREMiLz4mI3hhOzwvc3ZnPg==;strokeColor=#663CDC;fillColor=none;" parent="M8iGMSHeOonGl1CGFlT7-4" vertex="1">
          <mxGeometry x="32" y="13.594221152633054" width="17.927321668909826" height="17.927321668909826" as="geometry" />
        </mxCell>
        <mxCell id="M8iGMSHeOonGl1CGFlT7-7" value="" style="group" parent="1" vertex="1" connectable="0">
          <mxGeometry x="600" y="199.99999999999977" width="80" height="79.24374999999998" as="geometry" />
        </mxCell>
        <mxCell id="M8iGMSHeOonGl1CGFlT7-8" value="&lt;font color=&quot;#663cdc&quot;&gt;&amp;nbsp; &amp;nbsp; &amp;nbsp; &amp;nbsp; &amp;nbsp; &amp;nbsp; &lt;br&gt;&lt;br&gt;Central Security&lt;br&gt;Server&lt;/font&gt;" style="rounded=1;whiteSpace=wrap;html=1;strokeColor=#663CDC;strokeWidth=2;fillColor=none;" parent="M8iGMSHeOonGl1CGFlT7-7" vertex="1">
          <mxGeometry width="80" height="79.24375" as="geometry" />
        </mxCell>
        <mxCell id="M8iGMSHeOonGl1CGFlT7-9" value="" style="shape=image;verticalLabelPosition=bottom;labelBackgroundColor=#ffffff;verticalAlign=top;aspect=fixed;imageAspect=0;image=data:image/svg+xml,PHN2ZyB4bWxucz0iaHR0cDovL3d3dy53My5vcmcvMjAwMC9zdmciIHhtbG5zOnhsaW5rPSJodHRwOi8vd3d3LnczLm9yZy8xOTk5L3hsaW5rIiB3aWR0aD0iMjBweCIgaGVpZ2h0PSIxOHB4IiB2aWV3Qm94PSIwIDAgMjAgMTgiIHZlcnNpb249IjEuMSI+JiN4YTsgICAgPCEtLSBHZW5lcmF0b3I6IFNrZXRjaCA1OCAoODQ2NjMpIC0gaHR0cHM6Ly9za2V0Y2guY29tIC0tPiYjeGE7ICAgIDx0aXRsZT5Db21iaW5lZCBTaGFwZTwvdGl0bGU+JiN4YTsgICAgPGRlc2M+Q3JlYXRlZCB3aXRoIFNrZXRjaC48L2Rlc2M+JiN4YTsgICAgPGcgaWQ9IlN0eWxlZ3VpZGUtJmFtcDstVHlwZXBhZ2VzIiBzdHJva2U9Im5vbmUiIHN0cm9rZS13aWR0aD0iMSIgZmlsbD0ibm9uZSIgZmlsbC1ydWxlPSJldmVub2RkIj4mI3hhOyAgICAgICAgPGcgaWQ9Ikljb25zIiB0cmFuc2Zvcm09InRyYW5zbGF0ZSgtODg4LjAwMDAwMCwgLTQ3Ny4wMDAwMDApIiBmaWxsPSIjNjYzQ0RDIj4mI3hhOyAgICAgICAgICAgIDxwYXRoIGQ9Ik04OTIsNDgzIEw4OTQsNDgzIEw4OTQsNDkxIEw4OTcsNDkxIEw4OTcsNDgzIEw4OTksNDgzIEw4OTksNDkxIEw5MDIsNDkxIEw5MDIsNDgzIEw5MDQsNDgzIEw5MDQsNDkxIEw5MDYsNDkxIEw5MDYsNDkzIEw5MDgsNDkzIEw5MDgsNDk1IEw4ODgsNDk1IEw4ODgsNDkzIEw4OTAsNDkzIEw4OTAsNDkxIEw4OTIsNDkxIEw4OTIsNDgzIFogTTg5OCw0NzcgQzkwMS44MjQzMzQsNDc3IDkwNS4wNTg3NzcsNDc5LjUyNTYyMyA5MDYuMTI2Mzc1LDQ4Mi45OTk5MTQgTDg4OS44NzM2MjUsNDgyLjk5OTkxNCBDODkwLjk0MTIyMyw0NzkuNTI1NjIzIDg5NC4xNzU2NjYsNDc3IDg5OCw0NzcgWiIgaWQ9IkNvbWJpbmVkLVNoYXBlIi8+JiN4YTsgICAgICAgIDwvZz4mI3hhOyAgICA8L2c+JiN4YTs8L3N2Zz4=;" parent="M8iGMSHeOonGl1CGFlT7-7" vertex="1">
          <mxGeometry x="30" y="13.079214843749924" width="20" height="18" as="geometry" />
        </mxCell>
        <mxCell id="M8iGMSHeOonGl1CGFlT7-17" value="" style="group" parent="1" vertex="1" connectable="0">
          <mxGeometry x="320" y="200" width="80" height="80" as="geometry" />
        </mxCell>
        <mxCell id="M8iGMSHeOonGl1CGFlT7-19" value="" style="shape=image;verticalLabelPosition=bottom;labelBackgroundColor=#ffffff;verticalAlign=top;aspect=fixed;imageAspect=0;image=data:image/svg+xml,PHN2ZyB4bWxucz0iaHR0cDovL3d3dy53My5vcmcvMjAwMC9zdmciIHhtbG5zOnhsaW5rPSJodHRwOi8vd3d3LnczLm9yZy8xOTk5L3hsaW5rIiB3aWR0aD0iMTZweCIgaGVpZ2h0PSIxOHB4IiB2aWV3Qm94PSIwIDAgMTYgMTgiIHZlcnNpb249IjEuMSI+JiN4YTsgICAgPCEtLSBHZW5lcmF0b3I6IFNrZXRjaCA1OCAoODQ2NjMpIC0gaHR0cHM6Ly9za2V0Y2guY29tIC0tPiYjeGE7ICAgIDx0aXRsZT5TaGFwZSBDb3B5IDY8L3RpdGxlPiYjeGE7ICAgIDxkZXNjPkNyZWF0ZWQgd2l0aCBTa2V0Y2guPC9kZXNjPiYjeGE7ICAgIDxnIGlkPSJTdHlsZWd1aWRlLSZhbXA7LVR5cGVwYWdlcyIgc3Ryb2tlPSJub25lIiBzdHJva2Utd2lkdGg9IjEiIGZpbGw9Im5vbmUiIGZpbGwtcnVsZT0iZXZlbm9kZCI+JiN4YTsgICAgICAgIDxnIGlkPSJJY29ucyIgdHJhbnNmb3JtPSJ0cmFuc2xhdGUoLTc5OS4wMDAwMDAsIC04MDMuMDAwMDAwKSIgZmlsbD0iIzk0OERBOCI+JiN4YTsgICAgICAgICAgICA8cGF0aCBkPSJNODA3LDgwMyBDODAyLjU4LDgwMyA3OTksODA0Ljc5IDc5OSw4MDcgQzc5OSw4MDkuMjEgODAyLjU4LDgxMSA4MDcsODExIEM4MTEuNDIsODExIDgxNSw4MDkuMjEgODE1LDgwNyBDODE1LDgwNC43OSA4MTEuNDIsODAzIDgwNyw4MDMgTTc5OSw4MDkgTDc5OSw4MTIgQzc5OSw4MTQuMjEgODAyLjU4LDgxNiA4MDcsODE2IEM4MTEuNDIsODE2IDgxNSw4MTQuMjEgODE1LDgxMiBMODE1LDgwOSBDODE1LDgxMS4yMSA4MTEuNDIsODEzIDgwNyw4MTMgQzgwMi41OCw4MTMgNzk5LDgxMS4yMSA3OTksODA5IE03OTksODE0IEw3OTksODE3IEM3OTksODE5LjIxIDgwMi41OCw4MjEgODA3LDgyMSBDODExLjQyLDgyMSA4MTUsODE5LjIxIDgxNSw4MTcgTDgxNSw4MTQgQzgxNSw4MTYuMjEgODExLjQyLDgxOCA4MDcsODE4IEM4MDIuNTgsODE4IDc5OSw4MTYuMjEgNzk5LDgxNCBaIiBpZD0iU2hhcGUtQ29weS02Ii8+JiN4YTsgICAgICAgIDwvZz4mI3hhOyAgICA8L2c+JiN4YTs8L3N2Zz4=;fontFamily=Helvetica;fontSize=12;fontColor=#000000;align=center;strokeColor=#948DA8;strokeWidth=2;fillColor=#663CDC;" parent="M8iGMSHeOonGl1CGFlT7-17" vertex="1">
          <mxGeometry x="32" y="12.730000000000018" width="16" height="18" as="geometry" />
        </mxCell>
        <mxCell id="M8iGMSHeOonGl1CGFlT7-18" value="&lt;font color=&quot;#948da8&quot;&gt;&lt;br&gt;OCSP&lt;br&gt;Service&lt;/font&gt;" style="ellipse;whiteSpace=wrap;html=1;aspect=fixed;gradientDirection=north;fillColor=none;strokeWidth=2;strokeColor=#948DA8;" parent="M8iGMSHeOonGl1CGFlT7-17" vertex="1">
          <mxGeometry width="80" height="80" as="geometry" />
        </mxCell>
        <mxCell id="M8iGMSHeOonGl1CGFlT7-20" value="" style="group" parent="1" vertex="1" connectable="0">
          <mxGeometry x="480" y="359.9999999999998" width="80" height="79.24374999999998" as="geometry" />
        </mxCell>
        <mxCell id="M8iGMSHeOonGl1CGFlT7-21" value="&lt;font color=&quot;#663cdc&quot;&gt;&amp;nbsp; &amp;nbsp; &amp;nbsp; &amp;nbsp; &amp;nbsp; &amp;nbsp; Security&lt;br&gt;Server&lt;/font&gt;" style="rounded=1;whiteSpace=wrap;html=1;strokeColor=#663CDC;strokeWidth=2;fillColor=none;" parent="M8iGMSHeOonGl1CGFlT7-20" vertex="1">
          <mxGeometry width="80" height="79.24375" as="geometry" />
        </mxCell>
        <mxCell id="M8iGMSHeOonGl1CGFlT7-22" value="" style="shape=image;verticalLabelPosition=bottom;labelBackgroundColor=#ffffff;verticalAlign=top;aspect=fixed;imageAspect=0;image=data:image/svg+xml,PHN2ZyB4bWxucz0iaHR0cDovL3d3dy53My5vcmcvMjAwMC9zdmciIHhtbG5zOnhsaW5rPSJodHRwOi8vd3d3LnczLm9yZy8xOTk5L3hsaW5rIiB3aWR0aD0iMjBweCIgaGVpZ2h0PSIxOHB4IiB2aWV3Qm94PSIwIDAgMjAgMTgiIHZlcnNpb249IjEuMSI+JiN4YTsgICAgPCEtLSBHZW5lcmF0b3I6IFNrZXRjaCA1OCAoODQ2NjMpIC0gaHR0cHM6Ly9za2V0Y2guY29tIC0tPiYjeGE7ICAgIDx0aXRsZT5Db21iaW5lZCBTaGFwZTwvdGl0bGU+JiN4YTsgICAgPGRlc2M+Q3JlYXRlZCB3aXRoIFNrZXRjaC48L2Rlc2M+JiN4YTsgICAgPGcgaWQ9IlN0eWxlZ3VpZGUtJmFtcDstVHlwZXBhZ2VzIiBzdHJva2U9Im5vbmUiIHN0cm9rZS13aWR0aD0iMSIgZmlsbD0ibm9uZSIgZmlsbC1ydWxlPSJldmVub2RkIj4mI3hhOyAgICAgICAgPGcgaWQ9Ikljb25zIiB0cmFuc2Zvcm09InRyYW5zbGF0ZSgtODg4LjAwMDAwMCwgLTQ3Ny4wMDAwMDApIiBmaWxsPSIjNjYzQ0RDIj4mI3hhOyAgICAgICAgICAgIDxwYXRoIGQ9Ik04OTIsNDgzIEw4OTQsNDgzIEw4OTQsNDkxIEw4OTcsNDkxIEw4OTcsNDgzIEw4OTksNDgzIEw4OTksNDkxIEw5MDIsNDkxIEw5MDIsNDgzIEw5MDQsNDgzIEw5MDQsNDkxIEw5MDYsNDkxIEw5MDYsNDkzIEw5MDgsNDkzIEw5MDgsNDk1IEw4ODgsNDk1IEw4ODgsNDkzIEw4OTAsNDkzIEw4OTAsNDkxIEw4OTIsNDkxIEw4OTIsNDgzIFogTTg5OCw0NzcgQzkwMS44MjQzMzQsNDc3IDkwNS4wNTg3NzcsNDc5LjUyNTYyMyA5MDYuMTI2Mzc1LDQ4Mi45OTk5MTQgTDg4OS44NzM2MjUsNDgyLjk5OTkxNCBDODkwLjk0MTIyMyw0NzkuNTI1NjIzIDg5NC4xNzU2NjYsNDc3IDg5OCw0NzcgWiIgaWQ9IkNvbWJpbmVkLVNoYXBlIi8+JiN4YTsgICAgICAgIDwvZz4mI3hhOyAgICA8L2c+JiN4YTs8L3N2Zz4=;" parent="M8iGMSHeOonGl1CGFlT7-20" vertex="1">
          <mxGeometry x="30" y="13.079214843749924" width="20" height="18" as="geometry" />
        </mxCell>
        <mxCell id="M8iGMSHeOonGl1CGFlT7-23" value="" style="group" parent="1" vertex="1" connectable="0">
          <mxGeometry x="320" y="359.9999999999998" width="90" height="89.62000000000023" as="geometry" />
        </mxCell>
        <mxCell id="aWty4ZejZuyvXBJQkdjt-18" value="&amp;nbsp;" style="rounded=1;whiteSpace=wrap;html=1;fillColor=#EFEBFB;strokeColor=none;strokeWidth=2;arcSize=5;perimeterSpacing=0;fontColor=#948DA8;" parent="M8iGMSHeOonGl1CGFlT7-23" vertex="1">
          <mxGeometry x="-130" y="-10.379999999999768" width="220" height="100" as="geometry" />
        </mxCell>
        <mxCell id="M8iGMSHeOonGl1CGFlT7-24" value="&lt;font color=&quot;#663cdc&quot;&gt;&amp;nbsp; &amp;nbsp; &amp;nbsp; &amp;nbsp; &amp;nbsp; &amp;nbsp; Security&lt;br&gt;Server&lt;/font&gt;" style="rounded=1;whiteSpace=wrap;html=1;strokeColor=#663CDC;strokeWidth=2;fillColor=none;" parent="M8iGMSHeOonGl1CGFlT7-23" vertex="1">
          <mxGeometry width="80" height="79.24375" as="geometry" />
        </mxCell>
        <mxCell id="M8iGMSHeOonGl1CGFlT7-25" value="" style="shape=image;verticalLabelPosition=bottom;labelBackgroundColor=#ffffff;verticalAlign=top;aspect=fixed;imageAspect=0;image=data:image/svg+xml,PHN2ZyB4bWxucz0iaHR0cDovL3d3dy53My5vcmcvMjAwMC9zdmciIHhtbG5zOnhsaW5rPSJodHRwOi8vd3d3LnczLm9yZy8xOTk5L3hsaW5rIiB3aWR0aD0iMjBweCIgaGVpZ2h0PSIxOHB4IiB2aWV3Qm94PSIwIDAgMjAgMTgiIHZlcnNpb249IjEuMSI+JiN4YTsgICAgPCEtLSBHZW5lcmF0b3I6IFNrZXRjaCA1OCAoODQ2NjMpIC0gaHR0cHM6Ly9za2V0Y2guY29tIC0tPiYjeGE7ICAgIDx0aXRsZT5Db21iaW5lZCBTaGFwZTwvdGl0bGU+JiN4YTsgICAgPGRlc2M+Q3JlYXRlZCB3aXRoIFNrZXRjaC48L2Rlc2M+JiN4YTsgICAgPGcgaWQ9IlN0eWxlZ3VpZGUtJmFtcDstVHlwZXBhZ2VzIiBzdHJva2U9Im5vbmUiIHN0cm9rZS13aWR0aD0iMSIgZmlsbD0ibm9uZSIgZmlsbC1ydWxlPSJldmVub2RkIj4mI3hhOyAgICAgICAgPGcgaWQ9Ikljb25zIiB0cmFuc2Zvcm09InRyYW5zbGF0ZSgtODg4LjAwMDAwMCwgLTQ3Ny4wMDAwMDApIiBmaWxsPSIjNjYzQ0RDIj4mI3hhOyAgICAgICAgICAgIDxwYXRoIGQ9Ik04OTIsNDgzIEw4OTQsNDgzIEw4OTQsNDkxIEw4OTcsNDkxIEw4OTcsNDgzIEw4OTksNDgzIEw4OTksNDkxIEw5MDIsNDkxIEw5MDIsNDgzIEw5MDQsNDgzIEw5MDQsNDkxIEw5MDYsNDkxIEw5MDYsNDkzIEw5MDgsNDkzIEw5MDgsNDk1IEw4ODgsNDk1IEw4ODgsNDkzIEw4OTAsNDkzIEw4OTAsNDkxIEw4OTIsNDkxIEw4OTIsNDgzIFogTTg5OCw0NzcgQzkwMS44MjQzMzQsNDc3IDkwNS4wNTg3NzcsNDc5LjUyNTYyMyA5MDYuMTI2Mzc1LDQ4Mi45OTk5MTQgTDg4OS44NzM2MjUsNDgyLjk5OTkxNCBDODkwLjk0MTIyMyw0NzkuNTI1NjIzIDg5NC4xNzU2NjYsNDc3IDg5OCw0NzcgWiIgaWQ9IkNvbWJpbmVkLVNoYXBlIi8+JiN4YTsgICAgICAgIDwvZz4mI3hhOyAgICA8L2c+JiN4YTs8L3N2Zz4=;" parent="M8iGMSHeOonGl1CGFlT7-23" vertex="1">
          <mxGeometry x="30" y="13.079214843749924" width="20" height="18" as="geometry" />
        </mxCell>
        <mxCell id="aWty4ZejZuyvXBJQkdjt-4" value="" style="group" parent="1" vertex="1" connectable="0">
          <mxGeometry x="200" y="199" width="90.5" height="91" as="geometry" />
        </mxCell>
        <mxCell id="aWty4ZejZuyvXBJQkdjt-20" value="&amp;nbsp;" style="rounded=1;whiteSpace=wrap;html=1;strokeColor=none;strokeWidth=2;arcSize=5;perimeterSpacing=0;fillColor=#EAE8EE;fontColor=#948DA8;" parent="aWty4ZejZuyvXBJQkdjt-4" vertex="1">
          <mxGeometry x="-10.5" y="-130" width="101" height="221" as="geometry" />
        </mxCell>
        <mxCell id="aWty4ZejZuyvXBJQkdjt-5" value="&lt;font color=&quot;#948da8&quot;&gt;&lt;br&gt;Time-stamping&lt;br&gt;Service&lt;/font&gt;" style="ellipse;whiteSpace=wrap;html=1;aspect=fixed;gradientDirection=north;fillColor=none;strokeWidth=2;strokeColor=#948DA8;" parent="aWty4ZejZuyvXBJQkdjt-4" vertex="1">
          <mxGeometry width="80" height="80" as="geometry" />
        </mxCell>
        <mxCell id="aWty4ZejZuyvXBJQkdjt-6" value="" style="shape=image;verticalLabelPosition=bottom;labelBackgroundColor=#ffffff;verticalAlign=top;aspect=fixed;imageAspect=0;image=data:image/svg+xml,PHN2ZyB4bWxucz0iaHR0cDovL3d3dy53My5vcmcvMjAwMC9zdmciIHhtbG5zOnhsaW5rPSJodHRwOi8vd3d3LnczLm9yZy8xOTk5L3hsaW5rIiB3aWR0aD0iMjBweCIgaGVpZ2h0PSIyMHB4IiB2aWV3Qm94PSIwIDAgMjAgMjAiIHZlcnNpb249IjEuMSI+JiN4YTsgICAgPCEtLSBHZW5lcmF0b3I6IFNrZXRjaCA1OCAoODQ2NjMpIC0gaHR0cHM6Ly9za2V0Y2guY29tIC0tPiYjeGE7ICAgIDx0aXRsZT5Hcm91cCAzPC90aXRsZT4mI3hhOyAgICA8ZGVzYz5DcmVhdGVkIHdpdGggU2tldGNoLjwvZGVzYz4mI3hhOyAgICA8ZyBpZD0iU3R5bGVndWlkZS0mYW1wOy1UeXBlcGFnZXMiIHN0cm9rZT0ibm9uZSIgc3Ryb2tlLXdpZHRoPSIxIiBmaWxsPSJub25lIiBmaWxsLXJ1bGU9ImV2ZW5vZGQiPiYjeGE7ICAgICAgICA8ZyBpZD0iSWNvbnMiIHRyYW5zZm9ybT0idHJhbnNsYXRlKC05NzIuMDAwMDAwLCAtODA1LjAwMDAwMCkiIGZpbGw9IiM5NDhEQTgiPiYjeGE7ICAgICAgICAgICAgPGcgaWQ9Ikdyb3VwLTMiIHRyYW5zZm9ybT0idHJhbnNsYXRlKDk3Mi4wMDAwMDAsIDgwNS4wMDAwMDApIj4mI3hhOyAgICAgICAgICAgICAgICA8cGF0aCBkPSJNOS45OSwwIEM0LjQ3LDAgMCw0LjQ4IDAsMTAgQzAsMTUuNTIgNC40NywyMCA5Ljk5LDIwIEMxNS41MiwyMCAyMCwxNS41MiAyMCwxMCBDMjAsNC40OCAxNS41MiwwIDkuOTksMCBaIE0xMCwxOCBDNS41OCwxOCAyLDE0LjQyIDIsMTAgQzIsNS41OCA1LjU4LDIgMTAsMiBDMTQuNDIsMiAxOCw1LjU4IDE4LDEwIEMxOCwxNC40MiAxNC40MiwxOCAxMCwxOCBaIiBpZD0iU2hhcGUtQ29weS04Ii8+JiN4YTsgICAgICAgICAgICAgICAgPHBvbHlnb24gaWQ9IlBhdGgtQ29weSIgcG9pbnRzPSIxMC41IDUgOSA1IDkgMTEgMTQuMjUgMTQuMTUgMTUgMTIuOTIgMTAuNSAxMC4yNSIvPiYjeGE7ICAgICAgICAgICAgPC9nPiYjeGE7ICAgICAgICA8L2c+JiN4YTsgICAgPC9nPiYjeGE7PC9zdmc+;fontFamily=Helvetica;fontSize=12;fontColor=#000000;align=center;strokeColor=#000000;fillColor=#ffffff;" parent="aWty4ZejZuyvXBJQkdjt-4" vertex="1">
          <mxGeometry x="30" y="4.730000000000018" width="20" height="20" as="geometry" />
        </mxCell>
        <mxCell id="aWty4ZejZuyvXBJQkdjt-26" style="edgeStyle=orthogonalEdgeStyle;rounded=0;orthogonalLoop=1;jettySize=auto;html=1;exitX=1;exitY=0.5;exitDx=0;exitDy=0;fontColor=#948DA8;endArrow=none;endFill=0;strokeColor=#663CDC;" parent="1" source="aWty4ZejZuyvXBJQkdjt-11" target="M8iGMSHeOonGl1CGFlT7-24" edge="1">
          <mxGeometry relative="1" as="geometry" />
        </mxCell>
        <mxCell id="aWty4ZejZuyvXBJQkdjt-11" value="&lt;font color=&quot;#ffffff&quot;&gt;&lt;br&gt;Information&lt;br&gt;System&lt;/font&gt;" style="ellipse;whiteSpace=wrap;html=1;aspect=fixed;strokeWidth=2;strokeColor=none;fontColor=#663CDC;fillColor=#948DA8;" parent="1" vertex="1">
          <mxGeometry x="200" y="359.2399999999999" width="80" height="80" as="geometry" />
        </mxCell>
        <mxCell id="aWty4ZejZuyvXBJQkdjt-12" value="" style="shape=image;verticalLabelPosition=bottom;labelBackgroundColor=#ffffff;verticalAlign=top;aspect=fixed;imageAspect=0;image=data:image/svg+xml,PHN2ZyB4bWxucz0iaHR0cDovL3d3dy53My5vcmcvMjAwMC9zdmciIHhtbG5zOnhsaW5rPSJodHRwOi8vd3d3LnczLm9yZy8xOTk5L3hsaW5rIiB3aWR0aD0iMThweCIgaGVpZ2h0PSIyMnB4IiB2aWV3Qm94PSIwIDAgMTggMjIiIHZlcnNpb249IjEuMSI+JiN4YTsgICAgPCEtLSBHZW5lcmF0b3I6IFNrZXRjaCA1OCAoODQ2NjMpIC0gaHR0cHM6Ly9za2V0Y2guY29tIC0tPiYjeGE7ICAgIDx0aXRsZT5saWJyYXJ5LXNoZWx2ZXMgY29weSAzPC90aXRsZT4mI3hhOyAgICA8ZGVzYz5DcmVhdGVkIHdpdGggU2tldGNoLjwvZGVzYz4mI3hhOyAgICA8ZyBpZD0iU3R5bGVndWlkZS0mYW1wOy1UeXBlcGFnZXMiIHN0cm9rZT0ibm9uZSIgc3Ryb2tlLXdpZHRoPSIxIiBmaWxsPSJub25lIiBmaWxsLXJ1bGU9ImV2ZW5vZGQiPiYjeGE7ICAgICAgICA8ZyBpZD0iSWNvbnMiIHRyYW5zZm9ybT0idHJhbnNsYXRlKC03MzguMDAwMDAwLCAtMTE2Ny4wMDAwMDApIiBmaWxsPSIjRkZGRkZGIj4mI3hhOyAgICAgICAgICAgIDxnIGlkPSJsaWJyYXJ5LXNoZWx2ZXMtY29weS0zIiB0cmFuc2Zvcm09InRyYW5zbGF0ZSg3MzguMDAwMDAwLCAxMTY3LjAwMDAwMCkiPiYjeGE7ICAgICAgICAgICAgICAgIDxwYXRoIGQ9Ik0xNi41LDggTDE2LjUsMC41IEwxMy41LDAuNSBMMTMuNSw4IEwxMC41LDggTDEwLjUsMC41IEw3LjUsMC41IEw3LjUsOCBMNC41LDggTDQuNSwwLjUgTDEuNjUsMC41IEwxLjY1LDggTDAsOCBMMCw5LjUgTDE4LDkuNSBMMTgsOCBMMTYuNSw4IE0xNi41LDEyLjUgTDEzLjUsMTIuNSBMMTMuNSwyMCBMMTAuNSwyMCBMMTAuNSwxMi41IEw3LjUsMTIuNSBMNy41LDIwIEw0LjUsMjAgTDQuNSwxMi41IEwxLjY1LDEyLjUgTDEuNjUsMjAgTDAsMjAgTDAsMjEuNSBMMTgsMjEuNSBMMTgsMjAgTDE2LjUsMjAgTDE2LjUsMTIuNSBaIiBpZD0iU2hhcGUiLz4mI3hhOyAgICAgICAgICAgIDwvZz4mI3hhOyAgICAgICAgPC9nPiYjeGE7ICAgIDwvZz4mI3hhOzwvc3ZnPg==;imageBackground=none;fontColor=#663CDC;" parent="1" vertex="1">
          <mxGeometry x="231" y="369.3499999999998" width="18" height="22" as="geometry" />
        </mxCell>
        <mxCell id="aWty4ZejZuyvXBJQkdjt-13" value="&lt;font color=&quot;#ffffff&quot;&gt;&lt;br&gt;Information&lt;br&gt;System&lt;/font&gt;" style="ellipse;whiteSpace=wrap;html=1;aspect=fixed;strokeWidth=2;strokeColor=none;fontColor=#663CDC;fillColor=#948DA8;" parent="1" vertex="1">
          <mxGeometry x="600" y="359.2399999999999" width="80" height="80" as="geometry" />
        </mxCell>
        <mxCell id="aWty4ZejZuyvXBJQkdjt-14" value="" style="shape=image;verticalLabelPosition=bottom;labelBackgroundColor=#ffffff;verticalAlign=top;aspect=fixed;imageAspect=0;image=data:image/svg+xml,PHN2ZyB4bWxucz0iaHR0cDovL3d3dy53My5vcmcvMjAwMC9zdmciIHhtbG5zOnhsaW5rPSJodHRwOi8vd3d3LnczLm9yZy8xOTk5L3hsaW5rIiB3aWR0aD0iMThweCIgaGVpZ2h0PSIyMnB4IiB2aWV3Qm94PSIwIDAgMTggMjIiIHZlcnNpb249IjEuMSI+JiN4YTsgICAgPCEtLSBHZW5lcmF0b3I6IFNrZXRjaCA1OCAoODQ2NjMpIC0gaHR0cHM6Ly9za2V0Y2guY29tIC0tPiYjeGE7ICAgIDx0aXRsZT5saWJyYXJ5LXNoZWx2ZXMgY29weSAzPC90aXRsZT4mI3hhOyAgICA8ZGVzYz5DcmVhdGVkIHdpdGggU2tldGNoLjwvZGVzYz4mI3hhOyAgICA8ZyBpZD0iU3R5bGVndWlkZS0mYW1wOy1UeXBlcGFnZXMiIHN0cm9rZT0ibm9uZSIgc3Ryb2tlLXdpZHRoPSIxIiBmaWxsPSJub25lIiBmaWxsLXJ1bGU9ImV2ZW5vZGQiPiYjeGE7ICAgICAgICA8ZyBpZD0iSWNvbnMiIHRyYW5zZm9ybT0idHJhbnNsYXRlKC03MzguMDAwMDAwLCAtMTE2Ny4wMDAwMDApIiBmaWxsPSIjRkZGRkZGIj4mI3hhOyAgICAgICAgICAgIDxnIGlkPSJsaWJyYXJ5LXNoZWx2ZXMtY29weS0zIiB0cmFuc2Zvcm09InRyYW5zbGF0ZSg3MzguMDAwMDAwLCAxMTY3LjAwMDAwMCkiPiYjeGE7ICAgICAgICAgICAgICAgIDxwYXRoIGQ9Ik0xNi41LDggTDE2LjUsMC41IEwxMy41LDAuNSBMMTMuNSw4IEwxMC41LDggTDEwLjUsMC41IEw3LjUsMC41IEw3LjUsOCBMNC41LDggTDQuNSwwLjUgTDEuNjUsMC41IEwxLjY1LDggTDAsOCBMMCw5LjUgTDE4LDkuNSBMMTgsOCBMMTYuNSw4IE0xNi41LDEyLjUgTDEzLjUsMTIuNSBMMTMuNSwyMCBMMTAuNSwyMCBMMTAuNSwxMi41IEw3LjUsMTIuNSBMNy41LDIwIEw0LjUsMjAgTDQuNSwxMi41IEwxLjY1LDEyLjUgTDEuNjUsMjAgTDAsMjAgTDAsMjEuNSBMMTgsMjEuNSBMMTgsMjAgTDE2LjUsMjAgTDE2LjUsMTIuNSBaIiBpZD0iU2hhcGUiLz4mI3hhOyAgICAgICAgICAgIDwvZz4mI3hhOyAgICAgICAgPC9nPiYjeGE7ICAgIDwvZz4mI3hhOzwvc3ZnPg==;imageBackground=none;fontColor=#663CDC;" parent="1" vertex="1">
          <mxGeometry x="631" y="369.3499999999998" width="18" height="22" as="geometry" />
        </mxCell>
        <mxCell id="aWty4ZejZuyvXBJQkdjt-27" style="edgeStyle=orthogonalEdgeStyle;rounded=0;orthogonalLoop=1;jettySize=auto;html=1;exitX=1;exitY=0.5;exitDx=0;exitDy=0;entryX=0;entryY=0.5;entryDx=0;entryDy=0;endArrow=none;endFill=0;strokeColor=#663CDC;fontColor=#948DA8;" parent="1" source="M8iGMSHeOonGl1CGFlT7-24" target="M8iGMSHeOonGl1CGFlT7-21" edge="1">
          <mxGeometry relative="1" as="geometry" />
        </mxCell>
        <mxCell id="aWty4ZejZuyvXBJQkdjt-28" style="edgeStyle=orthogonalEdgeStyle;rounded=0;orthogonalLoop=1;jettySize=auto;html=1;exitX=1;exitY=0.5;exitDx=0;exitDy=0;entryX=0;entryY=0.5;entryDx=0;entryDy=0;endArrow=none;endFill=0;strokeColor=#663CDC;fontColor=#948DA8;" parent="1" source="M8iGMSHeOonGl1CGFlT7-21" target="aWty4ZejZuyvXBJQkdjt-13" edge="1">
          <mxGeometry relative="1" as="geometry" />
        </mxCell>
        <mxCell id="aWty4ZejZuyvXBJQkdjt-29" style="rounded=0;orthogonalLoop=1;jettySize=auto;html=1;exitX=0.5;exitY=0;exitDx=0;exitDy=0;endArrow=none;endFill=0;strokeColor=#663CDC;fontColor=#948DA8;entryX=0.5;entryY=1;entryDx=0;entryDy=0;" parent="1" source="M8iGMSHeOonGl1CGFlT7-21" target="M8iGMSHeOonGl1CGFlT7-8" edge="1">
          <mxGeometry relative="1" as="geometry" />
        </mxCell>
        <mxCell id="aWty4ZejZuyvXBJQkdjt-30" style="edgeStyle=orthogonalEdgeStyle;rounded=0;orthogonalLoop=1;jettySize=auto;html=1;exitX=0.5;exitY=0;exitDx=0;exitDy=0;entryX=0.5;entryY=1;entryDx=0;entryDy=0;endArrow=none;endFill=0;strokeColor=#663CDC;fontColor=#948DA8;" parent="1" source="M8iGMSHeOonGl1CGFlT7-21" target="M8iGMSHeOonGl1CGFlT7-5" edge="1">
          <mxGeometry relative="1" as="geometry" />
        </mxCell>
        <mxCell id="aWty4ZejZuyvXBJQkdjt-31" style="rounded=0;orthogonalLoop=1;jettySize=auto;html=1;exitX=0.5;exitY=0;exitDx=0;exitDy=0;endArrow=none;endFill=0;strokeColor=#663CDC;fontColor=#948DA8;entryX=0.25;entryY=1;entryDx=0;entryDy=0;" parent="1" source="M8iGMSHeOonGl1CGFlT7-24" target="M8iGMSHeOonGl1CGFlT7-8" edge="1">
          <mxGeometry relative="1" as="geometry">
            <mxPoint x="640" y="280" as="targetPoint" />
          </mxGeometry>
        </mxCell>
        <mxCell id="aWty4ZejZuyvXBJQkdjt-32" style="edgeStyle=none;rounded=0;orthogonalLoop=1;jettySize=auto;html=1;exitX=0.5;exitY=0;exitDx=0;exitDy=0;entryX=0.25;entryY=1;entryDx=0;entryDy=0;endArrow=none;endFill=0;strokeColor=#663CDC;fontColor=#948DA8;" parent="1" source="M8iGMSHeOonGl1CGFlT7-24" target="M8iGMSHeOonGl1CGFlT7-5" edge="1">
          <mxGeometry relative="1" as="geometry" />
        </mxCell>
        <mxCell id="aWty4ZejZuyvXBJQkdjt-33" style="edgeStyle=none;rounded=0;orthogonalLoop=1;jettySize=auto;html=1;exitX=0.5;exitY=0;exitDx=0;exitDy=0;entryX=1;entryY=1;entryDx=0;entryDy=0;endArrow=none;endFill=0;strokeColor=#663CDC;fontColor=#948DA8;" parent="1" source="M8iGMSHeOonGl1CGFlT7-21" target="M8iGMSHeOonGl1CGFlT7-18" edge="1">
          <mxGeometry relative="1" as="geometry" />
        </mxCell>
        <mxCell id="aWty4ZejZuyvXBJQkdjt-34" style="edgeStyle=none;rounded=0;orthogonalLoop=1;jettySize=auto;html=1;exitX=0.5;exitY=0;exitDx=0;exitDy=0;endArrow=none;endFill=0;strokeColor=#663CDC;fontColor=#948DA8;" parent="1" source="M8iGMSHeOonGl1CGFlT7-24" target="M8iGMSHeOonGl1CGFlT7-18" edge="1">
          <mxGeometry relative="1" as="geometry" />
        </mxCell>
        <mxCell id="aWty4ZejZuyvXBJQkdjt-35" style="edgeStyle=none;rounded=0;orthogonalLoop=1;jettySize=auto;html=1;exitX=0.5;exitY=0;exitDx=0;exitDy=0;entryX=1;entryY=1;entryDx=0;entryDy=0;endArrow=none;endFill=0;strokeColor=#663CDC;fontColor=#948DA8;" parent="1" source="M8iGMSHeOonGl1CGFlT7-21" target="aWty4ZejZuyvXBJQkdjt-5" edge="1">
          <mxGeometry relative="1" as="geometry" />
        </mxCell>
        <mxCell id="aWty4ZejZuyvXBJQkdjt-36" style="edgeStyle=none;rounded=0;orthogonalLoop=1;jettySize=auto;html=1;exitX=0.5;exitY=0;exitDx=0;exitDy=0;entryX=0.5;entryY=1;entryDx=0;entryDy=0;endArrow=none;endFill=0;strokeColor=#663CDC;fontColor=#948DA8;" parent="1" source="M8iGMSHeOonGl1CGFlT7-24" target="aWty4ZejZuyvXBJQkdjt-5" edge="1">
          <mxGeometry relative="1" as="geometry" />
        </mxCell>
        <mxCell id="aWty4ZejZuyvXBJQkdjt-37" style="edgeStyle=none;rounded=0;orthogonalLoop=1;jettySize=auto;html=1;exitX=0.5;exitY=1;exitDx=0;exitDy=0;entryX=0.5;entryY=0;entryDx=0;entryDy=0;endArrow=none;endFill=0;strokeColor=#663CDC;fontColor=#948DA8;" parent="1" source="aWty4ZejZuyvXBJQkdjt-2" target="M8iGMSHeOonGl1CGFlT7-18" edge="1">
          <mxGeometry relative="1" as="geometry" />
        </mxCell>
        <mxCell id="aWty4ZejZuyvXBJQkdjt-38" style="edgeStyle=none;rounded=0;orthogonalLoop=1;jettySize=auto;html=1;exitX=1;exitY=0.5;exitDx=0;exitDy=0;entryX=0;entryY=0.5;entryDx=0;entryDy=0;endArrow=none;endFill=0;strokeColor=#663CDC;fontColor=#948DA8;" parent="1" source="M8iGMSHeOonGl1CGFlT7-5" target="M8iGMSHeOonGl1CGFlT7-8" edge="1">
          <mxGeometry relative="1" as="geometry" />
        </mxCell>
        <mxCell id="aWty4ZejZuyvXBJQkdjt-39" style="edgeStyle=none;rounded=0;orthogonalLoop=1;jettySize=auto;html=1;exitX=0.5;exitY=1;exitDx=0;exitDy=0;entryX=0.5;entryY=0;entryDx=0;entryDy=0;endArrow=none;endFill=0;strokeColor=#663CDC;fontColor=#948DA8;" parent="1" source="M8iGMSHeOonGl1CGFlT7-2" target="M8iGMSHeOonGl1CGFlT7-5" edge="1">
          <mxGeometry relative="1" as="geometry" />
        </mxCell>
        <mxCell id="aWty4ZejZuyvXBJQkdjt-40" value="Service Consumer" style="text;html=1;strokeColor=none;fillColor=none;align=center;verticalAlign=middle;whiteSpace=wrap;rounded=0;fontColor=#663CDC;fontStyle=1" parent="1" vertex="1">
          <mxGeometry x="240" y="449.62" width="120" height="20" as="geometry" />
        </mxCell>
        <mxCell id="aWty4ZejZuyvXBJQkdjt-41" value="Service Provider" style="text;html=1;strokeColor=none;fillColor=none;align=center;verticalAlign=middle;whiteSpace=wrap;rounded=0;fontColor=#663CDC;fontStyle=1" parent="1" vertex="1">
          <mxGeometry x="520" y="449.62" width="120" height="20" as="geometry" />
        </mxCell>
        <mxCell id="aWty4ZejZuyvXBJQkdjt-42" value="Governing Authority" style="text;html=1;strokeColor=none;fillColor=none;align=center;verticalAlign=middle;whiteSpace=wrap;rounded=0;fontColor=#663CDC;fontStyle=1" parent="1" vertex="1">
          <mxGeometry x="520" y="50" width="120" height="20" as="geometry" />
        </mxCell>
        <mxCell id="aWty4ZejZuyvXBJQkdjt-44" value="Trust Service Providers" style="text;html=1;strokeColor=none;fillColor=none;align=center;verticalAlign=middle;whiteSpace=wrap;rounded=0;fontColor=#663CDC;fontStyle=1" parent="1" vertex="1">
          <mxGeometry x="215" y="50" width="170" height="20" as="geometry" />
        </mxCell>
      </root>
    </mxGraphModel>
  </diagram>
</mxfile>
